<?xml version="1.0" encoding="utf-8"?>
<!-- Generator: Adobe Illustrator 24.0.0, SVG Export Plug-In . SVG Version: 6.00 Build 0)  -->
<svg version="1.1" id="Capa_1" xmlns="http://www.w3.org/2000/svg" xmlns:xlink="http://www.w3.org/1999/xlink" x="0px" y="0px"
	 viewBox="0 0 1920 1080" style="enable-background:new 0 0 1920 1080;" xml:space="preserve">
<style type="text/css">
	.st0{fill:#FFFFFF;}
</style>
<g>
	<path class="st0" d="M803.56,490.01c-0.32,1.81-0.73,4.22-1.17,6c0.19-0.85,0.41-2,0.55-2.86
		C803.07,492.12,803.28,491.07,803.56,490.01"/>
	<g>
		<path class="st0" d="M945.58,451.3c-4.6-1.37-6.55-3.71-5.07-4.29c0.21-0.08,0.52-0.11,0.74-0.14c6.7,3.97,9.54,4.9,16.87,5.56
			l-1.98-0.05l-1.67-0.02C951.71,452.35,948.74,452.24,945.58,451.3 M940.22,452.1c1.01,0.23,1.01,0.23,15.93,0.3
			c3.12,0.12,7.28,0.36,10.39,0.62c-9.42-1.57-15.84-3.91-24.77-12.34c-8.46-2.85-13.25-1-11.15,4.29
			C931.67,447.6,934.74,450.86,940.22,452.1"/>
		<g>
			<path class="st0" d="M923.21,454.99c1.52-0.22,3.41-0.5,5.77-0.81l-5.04,0.73L923.21,454.99"/>
			<path class="st0" d="M910.2,449.4c-1.62-2.03-3.3-4.54-4.99-7.47c4.98-0.75,9.89-1.29,14.68-1.6
				c4.1,4.52,10.29,11.34,21.24,12.36c0.83,0.02,1.94,0.04,2.78,0.01l-2.71,0.19c-2.96,0.29-6.91,0.64-9.87,0.99
				c-1.15,0.03-2.69,0-3.81-0.14c-2.47,0.29-4.82,1.4-7.39,1.06c-0.01,0-1.58-0.4-4.65-2.68c2.03,0.02,3.98-0.23,6.23-0.51
				c-3.12-2.05-3.24-2.12-5.01-3.75c-4.48,0.67-5.11,1.03-6.35,1.73C910.3,449.53,910.24,449.46,910.2,449.4"/>
		</g>
		<path class="st0" d="M896.06,460.7c-0.02-0.02-3.08-4.98-7.36-15.56c1.97-0.46,3.93-0.9,5.9-1.3c5.54,6.54,13.15,13.83,22.9,12.16
			c-3.69,0.74-8.62,1.7-12.29,2.52l-1.72,0.4c-0.32,0.07-0.76,0.13-1.08,0.18c0.09,0,0.21,0.02,0.3,0.01l-6.6,1.65
			C896.09,460.73,896.07,460.71,896.06,460.7"/>
		<path class="st0" d="M853.07,473.06c1.41-4.72-0.55-12.04-1.49-15.55c10.91-12.58,28.49,3.87,29.18,7.6
			c-0.05,0.04-0.12,0.09-0.17,0.13c-4.19,1.41-9.77,3.29-13.91,4.8c-3.88,1.52-9.06,3.53-12.89,5.14l0.43-0.31
			c10.88-4.05,11.99-5.62,12.53-6.37c1.24-1.75-0.22-5-3.64-6.15c-1.99-0.67-3.36-0.1-3.87,0.11c0.35,1.33,0.82,3.09,1.19,4.41
			c0.28,1.03,0.58,2.06,0.83,3.1c-2.8,1.11-5.56,2.27-8.29,3.47C852.98,473.32,853.04,473.17,853.07,473.06"/>
		<path class="st0" d="M834.99,475.12c0.69-3.89,0.5-7.05,0.26-9.69c4.37-2.4,8.93-4.67,13.63-6.79c1.77,6.25,3.51,13.24,1.68,17.17
			c-0.51,0.75-0.66,0.97-1.4,1.38l-0.91,0.41c-11.3,5.34-11.51,5.44-16.97,8.4l-1.94,1.07l0.66-0.4c7.51-4.06,7.51-4.06,8.97-5.65
			c-2.76,1.39-5.66,3.03-6.75,3.65c2.39-2.47,3.17-4.78,3.54-5.89c1.55-0.47,2.74-1.08,5.09-2.3c0.49-3.19,0.51-3.32,0.48-5.5
			c-4.11,2.26-4.87,2.98-6.39,4.42C834.95,475.31,834.98,475.2,834.99,475.12"/>
		<path class="st0" d="M815.14,495.13c4.65-4.9,4.65-4.9,6.09-5.9c-1.84,2.82-2.77,4.24-5.67,6.21l-2.36,1.61
			c-0.02,0.01-0.04,0.02-0.05,0.04C813.79,496.42,814.5,495.8,815.14,495.13 M815.42,481.69c-0.05,0.09-0.12,0.22-0.17,0.31
			c2.77,5.68,1.95,8.22,1.94,8.24c-0.02,0.04-5.49,7.35-11.24,12.15c3.1-2.32,7.29-5.34,10.5-7.54c2.96-1.86,6.92-4.34,9.95-6.12
			l0.83-0.54c3.47-2.95,6.72-7.72,4.48-20.76c-2.68,1.56-5.27,3.17-7.77,4.82c0.26,4.01,0.45,6.91-0.5,11.34
			c-0.01,0.01-0.02,0.01-0.03,0.02c-0.14-2.48-0.36-6.23-3.53-12.33C819.24,473.11,817.95,476.9,815.42,481.69"/>
		<path class="st0" d="M799.03,507.77c2.37-3.17,4.03-6.42,4.83-7.99c1.17-2.3,1.36-2.62,1.82-3.16c0.08-0.06,0.22-0.14,0.33-0.16
			c0.38,0.4,0.11,5.05-6.36,11.25l-2.94,2.84C797.08,510.15,797.96,509.2,799.03,507.77 M795.56,511.39
			c-0.55,0.79-1.35,1.81-1.92,2.58c3.36-3.82,4.83-5.39,10.8-10.37l0.55-0.45l0.6-0.5c11.53-11.05,4.93-19.85,2.93-19.78
			c-2.37,0.08-3.47,4.21-5,9.92C802.43,496.83,800.41,504.35,795.56,511.39"/>
		<g>
			<path class="st0" d="M796,498.47c0.3,6.4,0.12,9.43-2.94,15.91c2.52-5.1,4.52-9.13,4.95-17.85c0.7-1.08,1.46-2.17,2.3-3.27
				c-0.39,9.87-2.76,14.99-7.3,21.5c-0.97,1.31-1.07,1.45-1.47,2.16l0.14-0.32C794.38,509.36,795.2,506.89,796,498.47"/>
			<path class="st0" d="M792.16,515.07c0.62-2.62,1.08-6.16,1.34-8.81c0.27-1.01,0.62-2.04,1.03-3.08
				c-0.48,5.14-0.74,7.97-2.78,13.22c0.11-0.34,0.26-0.79,0.35-1.13C792.12,515.21,792.15,515.13,792.16,515.07"/>
		</g>
		<path class="st0" d="M932.09,424.64c-4.72-0.56-9.73-0.78-14.92-0.69l0.18,0.2c3.38,3.24,6.88,6.17,12.56,6.39
			c2.15,0,3.27-0.16,4.8-0.7C932.4,425.34,932.4,425.34,932.09,424.64"/>
		<path class="st0" d="M895.03,425.97c5.5-0.87,10.93-1.48,16.19-1.79c0.26,0.57,2.27,4.66,2.63,5.33
			c-5.37,0.31-10.91,0.93-16.52,1.83C896.63,429.72,895.69,427.59,895.03,425.97"/>
		<g>
			<path class="st0" d="M893.3,426.25c1.07,1.9,1.11,1.96,3.14,5.22c-3.78,0.62-7.6,1.37-11.43,2.23c-0.92-1.8-1.61-3.14-2.66-5.29
				C886.02,427.59,889.68,426.86,893.3,426.25"/>
			<path class="st0" d="M874.67,434.87c-0.42-1.4-0.83-2.8-1.25-4.21c1.76-0.48,3.53-0.94,5.3-1.38c0.94,2.63,1.19,3.28,2,5.45
				c-1.88,0.47-3.77,0.96-5.65,1.49C874.95,435.81,874.79,435.27,874.67,434.87"/>
		</g>
		<path class="st0" d="M860.27,434.72c-0.69,5.76-2.51,7.65-5.86,9.3c-1.75,0.64-2.99,0.9-5.12,1.06c-0.71-1.58-1.65-3.68-2.37-5.25
			C851.28,437.99,855.75,436.28,860.27,434.72"/>
		<path class="st0" d="M828.48,448.84c4.77-2.68,9.8-5.19,15-7.5c0.27,0.61,1.99,4.54,2.34,5.35c-5.31,2.36-10.44,4.92-15.3,7.66
			C829.92,452.69,829.13,450.48,828.48,448.84"/>
		<path class="st0" d="M827.07,449.64c-5.16,2.97-10.01,6.13-14.43,9.46l0.18,0.2c3.53,2.52,5.66,4.04,10.95,0.5
			c2.03-1.46,3.38-2.62,5.56-4.78c-0.66-1.61-1.53-3.76-2.24-5.35C827.08,449.68,827.08,449.65,827.07,449.64"/>
		<path class="st0" d="M807.41,463.29c-3.27,2.79-6.09,5.56-8.47,8.29l0.81,1.09c3.14,3.89,4.37,4.62,6.48,2.04
			C807.59,472.17,808.27,469.37,807.41,463.29"/>
		<g>
			<path class="st0" d="M796.77,474.2c0.76,1.73,2.08,5.43,2.09,5.46c-1.31,1.68-2.46,3.34-3.44,4.98c-0.42-1.09-1.06-2.75-2.28-5.1
				C794.16,477.78,795.37,476,796.77,474.2"/>
			<path class="st0" d="M790.93,490.71c-0.32-0.94-0.79-2.18-1.18-3.1c0.38-1.52,0.92-3.07,1.63-4.65c0.95,2.74,1.17,3.58,1.79,6.05
				c-0.62,1.45-1.1,2.88-1.45,4.27C791.49,492.51,791.2,491.47,790.93,490.71"/>
		</g>
		<path class="st0" d="M789.42,496.15c-0.48-2.44-0.43-5.05,0.16-7.77c0.21,0.5,1.77,4.76,2,5.54c-0.6,2.78-0.65,5.43-0.16,7.92
			C790.84,500.14,789.94,497.89,789.42,496.15"/>
		<path class="st0" d="M789.58,496.88c0.22,0.91,0.51,1.8,0.88,2.67c0.42,1.12,0.97,2.61,1.31,3.75l-0.08-0.3
			C791.31,501.55,790.1,498.11,789.58,496.88"/>
	</g>
	<g>
		<path class="st0" d="M1100.41,490.98c-1.23,3.58-2.87,8.37-4.28,11.89c1.67-4.14,2.23-8.58,3.58-12.81
			c2.22-6.95,2.22-6.95,2.7-8.54c0.46-1.56,1.26-4.38,1.52-5.65C1103,480.43,1101.78,486.54,1100.41,490.98"/>
		<g>
			<path class="st0" d="M1078.46,533.35c0.01-0.02,3.8-5.31,4-5.6c0.75-1.07,1.37-2,1.61-2.36L1078.46,533.35"/>
			<path class="st0" d="M1091.24,513.26c-1.95,3.41-4.52,7.99-6.63,11.31c2.75-4.79,2.8-4.88,3.89-7.65
				c-2.1,3.27-4.33,6.45-6.49,9.67c2.42-5.29,3.38-9.31,4.05-12.87c8.08-11.7,8.4-12.16,11.73-19.08c-0.68,3.8-1.38,7.74-3.64,12.74
				L1091.24,513.26"/>
		</g>
		<path class="st0" d="M1060.53,553.62l-5.63,5.28c2.95-2.78,5.64-5.84,8.54-8.67c0,0,0,0,0.01-0.01c0,0,0,0,0.01-0.01
			c0,0,0,0,0.01-0.01c0,0,0,0,0.01-0.01c0,0,0,0,0.01-0.01c0,0,0,0,0.01-0.01c0,0,0,0,0.01-0.01c0,0,0,0,0.01-0.01
			C1062.62,551.23,1061.5,552.67,1060.53,553.62 M1043.56,568.48c12.91-10.77,18.25-15.23,30.31-29.3l0.2-0.24
			c3.83-5.3,6.63-9.84,7.77-19.92c-3.34,3.67-7.77,8.59-11.28,12.1c-0.64,4.39-1.1,7.56-3.24,12.58c-0.01,0.01-0.03,0.03-0.04,0.04
			c0.25-2.17,0.66-5.8-2.95-10.31c-0.18,0.31-0.42,0.72-0.61,1.02c-1.4,2.32-5.13,8.48-10.48,14.89c2.29,1.25,4.09,2.24,4.3,5.07
			C1046.79,565.87,1046.79,565.87,1043.56,568.48"/>
		<path class="st0" d="M1031.76,576.33c-1.74,2.06-4.01,3.64-6.01,4.96l-5.29,3.38c-0.43,0.26-0.45,0.27-0.59,0.33
			c-0.02-0.26,7.94-11,8.02-11.11c1.37-1.75,2.46-2.52,2.98-2.89c0,0,0,0,0,0c0,0,0,0,0,0c0,0,0,0,0,0s0,0,0,0s0,0,0,0c0,0,0,0,0,0
			s0,0,0,0c0,0,0,0,0,0c3.56-2.01,2.83,1.86,2.82,1.9C1033.48,573.91,1032.82,575.06,1031.76,576.33 M1041.51,570.07l0.29-0.22
			c9.9-8.89,3.81-14.06-1.41-13.86c-3.12,0.12-5.65,1.57-8.34,3.11c0,0-0.01,0-0.01,0.01c0,0-0.01,0-0.01,0.01c0,0-0.01,0-0.01,0.01
			c0,0-0.01,0-0.01,0.01s-0.01,0-0.01,0.01c0,0-0.01,0-0.01,0.01c0,0-0.01,0-0.01,0.01c0,0-0.01,0-0.01,0.01l-2.22,1.56
			c-6.31,5.24-8.74,8.71-16.41,21.29c-4.68,7.67-6.86,10.7-9.74,12.42c4.1-2.31,9.59-5.33,13.63-7.75
			c14.48-9.24,15.34-9.8,23.27-15.8L1041.51,570.07"/>
		<path class="st0" d="M992.7,599.95c-16.69,7.65-16.69,7.65-25.56,11.08c-4.43,1.61-10.32,3.82-14.79,5.33
			c2.53-1.49,2.8-6.52,0.98-18.56c3.99-1.42,9.3-3.3,13.29-4.72c0.88,5.52,1.27,8.58,1.14,12.68c5.26-6.46,7.67-10.39,11.74-19.11
			c6.12,4.58,8.78,6.38,12.91,8.73c0.84-3.75,1.33-6.53,0.96-13.44l12.25-5.94c0.79,11.03-0.99,17.31-5.75,20.36L992.7,599.95"/>
		<path class="st0" d="M940.76,620.03c-7.37,2.05-17.23,4.65-24.66,6.45l-0.1-0.16c5.42-1.13,9.19-2.09,11.44-2.67
			c0.11-0.36,0.18-0.85,0.22-1.22c-6.45,1.62-7.79,1.96-12.31,3.02c0.72-1.62,0.62-3.2,0.56-4.14c4.42-0.56,8.43-1.63,11.08-2.33
			c-0.48-2.84-0.48-2.84-0.85-4.83c-10.42,2.83-10.5,2.86-14.57,4.44c0.22-3.65,0.18-5.19,0.06-9.11
			c20.43-5.04,21.65-5.35,33.82-9.14c1.51,6.28,3.09,13.25,2.81,16.49c-0.13,0.57-0.18,0.79-0.47,1.01L940.76,620.03"/>
		<path class="st0" d="M889.73,631.25c-0.21,0.03-0.42,0.06-0.63,0.1c-7.2,1.04-9.58,0.86-11.46,0.18c-1.37-0.5-3.24-2.51-1.38-4.88
			c1.85-2.35,5.67-3.18,7.3-3.53C886.19,628.59,887.52,630.33,889.73,631.25 M886.51,631.86c7.37-1.17,17.18-2.85,24.5-4.27
			l-0.07,0.01c-0.96-0.11-3.21-0.38-8.8-16.08c-5.45,0.33-12.29,1.27-20.32,2.82c-23.13,5.81-22.96,16.72-17.7,19.04
			C865.16,633.83,867.07,634.67,886.51,631.86"/>
		<g>
			<path class="st0" d="M831.73,634.81l-0.02,0l-0.23-0.01c2.45,0.09,4.42,0.13,5.16,0.15L831.73,634.81"/>
			<path class="st0" d="M859.1,634.53c-4.84,0.16-11.3,0.44-16.14,0.47c-1.01-0.11-2.36-0.37-3.33-0.67
				c-12.33-0.02-12.33-0.02-15.6-3.37c4.45,0.51,8.15,0.48,10.86,0.47c-2.38-2.45-2.47-2.55-3.77-4.4
				c-10.09,0.16-10.09,0.16-13.39,0.59c-1.35-2.75-2.4-5.98-3.04-8.21c19.84,0.2,20.61,0.2,32.87-0.54
				c3.17,6.08,7.07,12.74,13.12,14.97c1.41,0.35,1.74,0.44,3.07,0.4L859.1,634.53"/>
		</g>
		<path class="st0" d="M804.44,632.39l-11.19-1.9c-2.36-0.63-8.62-2.3-12.47-14.29l11.74,1.6c3.28,3.71,13.25,14.98,28.74,16.42
			C816.22,633.72,809.46,633.16,804.44,632.39"/>
		<path class="st0" d="M751.13,617.2c-6.39-3.05-11.94-7.51-18.13-10.89c1.89,1.55,4.5,3.52,6.53,4.9c0.85,0.51,1.14,0.68,1.92,1.12
			c-3.39-2.02-7.92-4.69-11.21-6.87c-6.07-4.21-9.26-8.72-10.97-11.14c1.44,0.47,2.76,1.14,7.26,3.58
			c15.06,8.17,27.34,20.9,43.82,26.74C764.53,622.56,756.77,619.74,751.13,617.2"/>
		<path class="st0" d="M721.8,599.2c-9.17-7.97-9.72-8.45-15.95-15.49l-2.98-3.65c-0.65-0.85-0.75-0.99-1.39-1.89
			c8.09,8.94,8.24,9.11,14.4,13.73c3.59,4.64,5.22,6.76,10.7,10.98L721.8,599.2"/>
		<path class="st0" d="M1030.94,353.64l9.12,4.3c-2.36-1.22-4.12-1.96-6.36-2.87c-3.49-1.42-7.07-2.59-10.56-4
			C1028.08,352.41,1028.48,352.51,1030.94,353.64 M1051.61,364.54c-10.58-6.19-20.57-12.03-39.86-17.88
			c-4.18-1.02-6.49-1.58-12.2-1.17c2.79,1.21,9.88,3.89,11.27,4.41c8.49,2.95,17.35,4.7,25.81,7.74
			C1043.47,360.09,1046.55,361.51,1051.61,364.54"/>
		<g>
			<path class="st0" d="M1080.96,390.33c-0.98-1.09-2.24-2.59-3.26-3.64c-0.88-1.17-1.85-2.19-2.26-2.63L1080.96,390.33"/>
			<path class="st0" d="M1070.99,379.6l1.13,1.09c-1.36-1.21-3.16-2.85-4.59-3.98c2.51,2.47,3.94,4.1,5.19,5.56
				c-4.49-3.64-8.35-5.77-10.25-6.71c-0.24-0.12-0.63-0.2-0.81-0.4c-1.14-1.26-1.71-2.99-3.24-3.93c-0.03-0.02-3.23-1.82-9.27-3.46
				c5.63,5.19,5.63,5.19,6.73,6.07c-6.74-2.47-11.67-3.1-14.33-3.44c-6.86-7.15-7.13-7.43-12.42-11.17c7.99,0.3,16,1.12,26.16,7.73
				C1064.72,373.91,1065.94,374.8,1070.99,379.6"/>
		</g>
		<path class="st0" d="M1095.2,412.83l1.88,4.23c-2.82-6.58-5.88-10.38-9.91-14.37c6.1,7.09,9.96,13.79,12.9,22.42l1.84,6.26
			l0.66,2.69l0.51,2.48c-6.42-26.75-26.34-46.21-53.29-52.07l-2.3-5.19c22.09,0.85,33.28,10.31,38.78,18.1
			C1091.92,406.24,1092.79,407.61,1095.2,412.83"/>
		<path class="st0" d="M1088.03,417.85c14.76,15.09,18.24,40.13,11.38,51.6c-3.15-10-5.77-15.29-14.18-25.09
			c0.99-0.44,1.53-1.16,2.2-2.96c0,0,0,0,0,0c0,0,0,0,0,0c0,0,0,0,0,0s0,0,0,0c0,0,0,0,0,0c0,0,0,0,0,0c0,0,0,0,0,0c0,0,0,0,0,0
			c3.02-12.15-16.55-28.02-24.26-23.21c-0.89,0.56-1.13,1.16-1.39,1.79c2.65,1.39,6.17,3.26,8.79,4.7c3.98,2.29,5.86,3.59,8.28,5.31
			c-0.94,2.54-2.05,5.97-3.13,8.45c-11.7-10.97-22.65-14.96-27.91-16.87c-0.51-2.2-0.39-3.83,0.53-7.24c0-0.01,0-0.01,0-0.02
			s0-0.01,0-0.02c0-0.01,0-0.01,0-0.02c0-0.01,0-0.01,0-0.02c0-0.01,0-0.01,0-0.02c0-0.01,0-0.01,0-0.02s0-0.01,0-0.02
			c0-0.01,0-0.01,0-0.02C1053.22,401.2,1073.6,403.09,1088.03,417.85"/>
		<path class="st0" d="M1083.24,497.26c-2.72-10.83-5.03-16.71-12.58-28.13c2.65-1.94,3.96-3.04,6.17-6.05
			c-1.71-2.28-4.06-5.28-5.9-7.46c-1.81,2.48-3.45,5.08-5.18,7.62c-4.02-5.91-7.38-9.07-9.19-10.76c2.64-1.62,3.88-3.56,5.08-5.44
			c-5.49-4.22-5.71-4.39-9.08-6.52c-3.4,5.79-3.4,5.79-3.98,8.68c-5.19-4.54-8.84-6.8-12.13-8.72c6.83-9.8,7.09-10.19,9.92-15.99
			c9.52,3.45,20.7,8.13,33.05,20.02c16.08,16.68,17.95,29.81,17.96,29.94C1097.4,474.48,1095.45,481.06,1083.24,497.26"/>
		<path class="st0" d="M1055.61,486.01c-0.13,0.14-0.25,0.27-0.39,0.4c-6.04,5.41-12.53-4.44-12.22-9.42
			c0.16-2.47,1.23-3.61,1.87-4.29c0,0,0,0,0.01-0.01s0,0,0.01-0.01c0,0,0,0,0.01-0.01c0,0,0,0,0.01-0.01c0,0,0,0,0.01-0.01
			c0,0,0,0,0.01-0.01c0,0,0,0,0.01-0.01c0,0,0,0,0.01-0.01C1049.33,477.54,1051.53,480,1055.61,486.01 M1080.61,500.87
			c0.34-0.51,0.78-1.21,1.11-1.73c-9.55-30.09-31.82-46.1-48.82-54.23c-2.8,3.07-6.53,7.19-9.48,10.12
			c4.69,2.97,8.08,5.12,13.86,10.06c-0.02,0.01-0.03,0.03-0.05,0.04c-5.45-2.5-12.22-5.61-22.91-7.4c0,0.22,0.01,0.5,0.01,0.72
			c-0.01,2.06-0.02,6.34-1.63,11.58c6.01,0.99,11.68,1.92,20.59,5.84c-2.51,11.33,12.97,54.44,34.36,39.42
			C1071.59,512.53,1076.55,507.01,1080.61,500.87"/>
		<path class="st0" d="M1016.87,500.71c2.98,4.58,5.61,10.72,1.17,13.99c-2.74,1.48-5.51,1.26-10.11-4.63
			c-6.59-8.44-8.33-16.09-7.8-18.31C1001.25,487.11,1010.78,491.36,1016.87,500.71 M1037.14,500.82
			c-10.81-19.3-33.53-29.96-47.68-22.36c0,0-0.01,0-0.01,0.01c0,0-0.01,0-0.01,0.01c0,0-0.01,0-0.01,0.01c0,0-0.01,0-0.01,0.01
			c0,0-0.01,0-0.01,0.01c0,0-0.01,0-0.01,0.01s-0.01,0-0.01,0.01c0,0-0.01,0-0.01,0.01l-1.69,1.27c-2.46,2.61-9,9.55,5.13,38.54
			c4.06,8.33,14.84,30.45,28.57,30.59c3.72,0.04,6.24-1.36,8.91-2.84c0,0,0.01-0.01,0.01-0.01c0,0,0.01-0.01,0.01-0.01
			s0.01-0.01,0.01-0.01c0,0,0.01-0.01,0.01-0.01c0,0,0.01-0.01,0.01-0.01c0,0,0.01-0.01,0.01-0.01c0,0,0.01-0.01,0.01-0.01
			s0.01-0.01,0.01-0.01C1046.1,534.72,1044.9,514.68,1037.14,500.82"/>
		<path class="st0" d="M985.49,566.84c-6.19-9.09-9.45-12.78-16.74-19.95c-0.74,9.23-1.35,18.47-2.05,27.7
			c-5.85,2.11-13.64,4.98-19.54,6.95c-7.47-36.56-18.14-62.45-21.64-70.95c3.31-1.17,7.73-2.74,11.04-3.91
			c3.18,5.98,5.41,10.26,9.53,19.3c0.71-10.76,0.81-15.88,0.52-24.9c9.05,5.41,13.65,8.31,23.45,14.74
			c-3.67-6.69-6.26-11.27-11.2-18.41l10.21-4.94c14.85,17.46,28.05,41.02,36.24,64.64C999.41,560.1,991.53,564.11,985.49,566.84"/>
		<path class="st0" d="M903.66,593.39c-2.06-10.61-3.22-16.87-5.64-30.84c4.5-0.14,7.21-0.22,13.23-1.54
			c-0.55-2.85-1.28-6.64-1.83-9.49c-2.24,0.5-2.24,0.5-13.09,3.38c-0.05-7.34-0.47-11.32-0.75-13.95c4.25,0.12,6.92-0.58,10.61-1.56
			c-0.8-5.06-0.8-5.06-1.98-10.36c-9.13,2.59-9.9,3.03-13.18,4.88c-0.05-7.42-0.05-7.42-0.18-13.64c16.96-4.17,17.98-4.42,28.1-7.55
			c3.27,7.89,7.25,17.7,13.18,34.46c4.25,12.23,8.27,23.79,11.92,35.39C924.33,588.47,921.29,589.38,903.66,593.39"/>
		<path class="st0" d="M868.48,567.97c-0.22,0.04-0.44,0.08-0.66,0.12c-13.79,1.46-14.83-18.92-8.53-26.82
			c2.25-2.82,4.82-3.53,6.2-3.92C866.14,547.91,866.7,554.5,868.48,567.97 M898.27,594.67c0.6-0.22,1.39-0.53,1.99-0.76
			c-3.67-11.76-11.3-36.22-17.25-71.95c-2.78-0.03-7.54,0.14-16.66,1.99c-33.21,9.71-30.1,58-8.15,70.93
			c9.6,5.66,19.88,4.37,24.81,3.76c0.01,0,0.03,0,0.04-0.01s0.03,0,0.04-0.01c0.01,0,0.03,0,0.04-0.01c0.01,0,0.03,0,0.04-0.01
			c0.01,0,0.03,0,0.04-0.01c0.01,0,0.03,0,0.04-0.01c0.01,0,0.03,0,0.04-0.01c0.01,0,0.03,0,0.04-0.01
			C886.31,598.04,891.79,597.03,898.27,594.67"/>
		<path class="st0" d="M805.33,602.49c-1.87-10.67-2.48-16.93-2.17-30.78c5.91,1.56,9.12,1.69,12.22,1.82
			c0.08-2.89,0.22-6.75,0.37-9.64c-2.33-0.08-2.52-0.08-12.45,0c2.24-9.46,2.24-9.46,3.2-13.79c3.8,1.2,6.56,1.18,9.75,1.15
			c0.66-3.57,1.23-7.15,1.88-10.72c-8.88,0.25-9.61,0.46-13.12,1.48c0.79-2.08,2.88-7.59,5.63-13.59
			c16.38,0.18,17.02,0.19,27.16-0.42c-0.88,8.72-1.7,19.51-0.26,37.21c0.5,5.46,1.84,19.96,7,36.72
			C825.31,602.86,821.84,603.03,805.33,602.49"/>
		<path class="st0" d="M778.48,599.99c-4.42-13.66-6.21-26.15-6.77-30.89c-3.46,14.13-2.98,21.99-2.13,29.44
			c-3.41-0.72-7.95-1.67-11.35-2.39c-0.1-34.05,21.95-66.79,24.46-70.41l9.68,1.34c-3.59,17.2-4.61,44.22,10.97,75.32
			C795.88,601.82,785.92,600.92,778.48,599.99"/>
		<path class="st0" d="M743.15,558.56c-4.82,21.92-9.07,30.75-21.52,25.12c0,0-0.01,0-0.01-0.01c0,0-0.01,0-0.01-0.01
			s-0.01,0-0.01-0.01s-0.01,0-0.01-0.01s-0.01,0-0.01-0.01s-0.01,0-0.01-0.01c0,0-0.01,0-0.01-0.01c0,0-0.01,0-0.01-0.01
			c-4.43-2.44-7.18-4.98-7.18-5c-2.73-11.46-3-18.04-1.29-30.63c0.92,1.56,1.82,2.44,3.71,3.62c0,0,0,0,0.01,0c0,0,0,0,0,0
			c0,0,0,0,0.01,0c0,0,0,0,0,0s0,0,0.01,0c0,0,0,0,0,0s0,0,0,0c0,0,0,0,0.01,0c9.78,4.66,19.31-19.08,16.16-27.47
			c-0.62-1.66-1.59-2.29-2.22-2.7c-1.57,2.59-3.51,6.14-4.8,8.89c-1.8,4.29-2.64,7.3-3.31,9.72c-2.57-1.58-6.08-3.56-8.56-5.27
			c4.61-10.29,10.17-18.67,18.03-27.16c2.59,0.15,4.37,0.73,7.94,2.59C751.68,517.34,749.55,529.44,743.15,558.56"/>
		<path class="st0" d="M692.54,559.1c-1.82-10.34-1.91-16.21,1.24-28.56c1.74,3.81,2.83,5.19,4.29,6.88
			c0.78-2.59,1.91-6.02,2.86-8.55c-1.58-1.81-3.25-3.54-4.83-5.34c1.08-2.06,2.9-5.51,6.75-11.16c0.87,2.74,1.98,3.87,3.37,5.3
			c3.56-5.45,4.02-6.15,6.3-9.05c-3.87-3.57-3.87-3.57-5.6-4.15c-0.02-0.13-0.06-0.3-0.08-0.44c4.88-5.11,9.39-8.59,10.87-9.73
			c6.32,7.09,6.7,7.51,11.73,11.32c-6.62,7.64-14.1,17.18-19.09,33.86c-1.39,5.28-5.08,19.31-0.75,36.03
			C705.86,572.54,694.49,563.42,692.54,559.1"/>
		<path class="st0" d="M686.13,517.21c-0.05-0.11-0.1-0.22-0.14-0.33c-1.99-5.78,3.17-16.66,5.9-15.08
			c0.38,0.22,0.55,0.58,0.73,0.96C689.63,508.14,688.13,510.83,686.13,517.21 M690.78,556.78c0.21,0.26,0.5,0.59,0.71,0.85
			c-6.34-31.52,9.43-53.67,23.79-66.71c-1.33-2.42-3.15-5.64-4.22-8.19c-4.44,3.58-7.65,6.17-12.45,11.8c0-0.01-0.01-0.02-0.01-0.03
			c2.89-4.63,7.18-10.92,14.86-18.57c-0.19-0.01-0.44-0.03-0.63-0.04c-2.92-0.21-5.05-0.4-7.98-1.15
			c-1.94,1.99-7.09,9.42-11.32,17.65c-8.59-0.4-19.97,24.77-6.8,57.66c0,0.01,0.01,0.01,0.01,0.02s0.01,0.01,0.01,0.02
			s0.01,0.01,0.01,0.02s0.01,0.01,0.01,0.02c0,0.01,0.01,0.01,0.01,0.02c0,0.01,0.01,0.01,0.01,0.02c0,0.01,0.01,0.01,0.01,0.02
			c0,0.01,0.01,0.01,0.01,0.02C687.46,551.61,688.71,554.2,690.78,556.78"/>
		<path class="st0" d="M687.24,483.97c-1.11,1.87-1.94,3.46-2.68,4.87c-1.01,1.93-1.11,2.05-1.33,2.2
			c-0.12-0.24-0.12-0.24-0.05-0.88c2.02-12.92,12.28-23.44,13.95-22.32c0.69,0.46-1.22,3.16-2.75,5.33
			C692.74,475.5,689.67,479.84,687.24,483.97 M683.06,502.95c4.83-13.92,14.58-25.9,19.27-31.65c5.49-6.74,7.34-9.01,8.25-12.72
			c0,0,0,0,0-0.01s0,0,0-0.01s0,0,0-0.01c0,0,0,0,0-0.01s0,0,0-0.01c0,0,0,0,0-0.01c0,0,0,0,0-0.01s0,0,0-0.01l0.01-1.11
			c-1.88-5.51-15.54-0.48-22.51,15.16c-1.02,2.3-2.06,5.5-2.85,7.89c-2.83,10.46-3.27,12.06-4.46,20.91
			c-0.85,10.9-0.9,11.56-0.6,18.14l-0.02-1.86C680.29,515.03,680.56,510.15,683.06,502.95"/>
		<path class="st0" d="M694.63,458.12c7.58-13.02,7.58-13.02,17.14-25.3l3.04-3.56c4.67-4.91,7.5-6.83,14.38-9.8
			c-1.59,1.94-3.71,4.53-5.31,6.47c-6.15,2.93-9.61,4.9-14.74,10.33c3.37-2.64,5.76-3.56,11.63-4.48
			c-9.43,6.32-13.7,10.2-20.78,18.88c4.42-4.52,7.66-7.54,15.32-11.35l-2.95,6.32c-4.39,2.45-17.76,9.92-24.28,26.66
			C689.95,467.99,692.4,462.23,694.63,458.12"/>
		<path class="st0" d="M732.68,411.44c0.83-0.66,1.9-1.57,2.78-2.16c8.77-7.7,9.69-8.51,14.66-9.44
			c-11.41,9.6-11.85,9.98-17.47,15.84c-4.78,2.06-8.56,3.69-13.91,9.25C722.84,420.8,728.24,415.2,732.68,411.44"/>
		<path class="st0" d="M768.16,385.64c-6.23,3.98-14.44,9.44-20.48,13.7c3.73-2.4,3.8-2.45,8.08-3.82c3.6-2.34,7.16-4.74,10.75-7.09
			c0,0,0.01-0.01,0.01-0.01c0,0,0.01-0.01,0.01-0.01c0,0,0.01-0.01,0.01-0.01s0.01-0.01,0.01-0.01s0.01-0.01,0.01-0.01
			s0.01-0.01,0.01-0.01c0,0,0.01-0.01,0.01-0.01c0,0,0.01-0.01,0.01-0.01l2.42-1.61c3.49-2.39,6.63-5.27,10.24-7.5
			C775.94,381.17,771.45,383.65,768.16,385.64"/>
		<path class="st0" d="M792.68,372.35c7.44-3.41,17.45-7.76,25.02-10.87c0.21,0.03,0.29,0.04,0.65,0.35
			c-15.73,6.52-16.67,6.91-25.71,11.38c-1.14,0.19-2.64,0.58-3.72,0.99L792.68,372.35"/>
		<path class="st0" d="M844.61,352.27l4.34-1.27c-0.2,0.08-0.66,0.27-1,0.79l-10.66,3.27c-1.1-0.01-1.43-0.02-2.52,0.3
			L844.61,352.27"/>
		<path class="st0" d="M898.86,340.45c6.55-0.78,15.29-1.75,21.86-2.32c-1.48,0.15-2.33,0.48-2.71,0.67
			c-0.98,0.48-0.98,0.48-13.01,1.83c-0.01,0-0.02,0-0.03,0s-0.02,0-0.03,0c-0.01,0-0.02,0-0.03,0c-0.01,0-0.02,0-0.03,0
			c-0.01,0-0.02,0-0.03,0c-0.01,0-0.02,0-0.03,0s-0.02,0-0.03,0s-0.02,0-0.03,0c-6.4,0.69-12.85,0.92-19.23,1.9L898.86,340.45"/>
		<path class="st0" d="M926.27,337.78c17.76-0.6,18.1-0.61,27.38-0.29l3.81,0.17c-3.58-0.16-6,0.28-8.53,1
			c-16.01-0.31-16.64-0.32-26.58,0.2c2.15-0.98,2.15-0.98,3.29-1.05L926.27,337.78"/>
		<path class="st0" d="M980.92,339.92c-5.38-0.63-12.55-1.48-17.95-1.92l-0.15-0.01c-2.72,0-3.63,0-6.86,1.09
			c4.7,0.47,10.96,1.08,15.64,1.73c3.47-0.75,5.97-1.29,10.45-0.72c0.02,0,0.04,0.01,0.06,0.01c-1.16-0.1-3.59-0.32-6.06,2.89
			c0.31-0.01,0.72-0.01,1.03-0.02c2.65-0.02,8.17-0.06,15.85,0.94c0.57-1.02,0.89-1.58,2.29-1.45
			C990.94,341.67,985.24,340.49,980.92,339.92"/>
	</g>
	<g>
		<path class="st0" d="M996,397.89c0.14-0.36,15.59-33.62,20.44-23.24c1.2,2.56,0.04,5.84-4.58,13.02
			c-12.88,13.99-19.15,32.36-15.62,50.53c0.13,0.62,0.29,1.44,0.43,2.05c-0.54-1.96-1.39-3.84-2.55-5.63
			c-1.82-8.95-2.21-13.62-0.91-23.65c0.12,1.42,0.33,1.95,0.76,2.59c0.11-0.01,0.26-0.03,0.36-0.04
			c0.15-0.21,13.41-25.89,12.34-28.76c-1.66,2.4-3.76,5.68-5.22,8.21c-2.15,4.1-3.11,6.7-3.95,8.99c-0.55-1.04-1.19-2.05-1.91-3.04
			C995.72,398.62,995.88,398.2,996,397.89"/>
		<path class="st0" d="M986.05,403.79c1.11,2.01,1.28,2.32,2.28,3.41c0.47-2.69,1.18-6.26,1.82-8.91c-0.53-0.53-1.11-1.04-2.74-1.89
			c0.98-3.26,2.24-7.05,4.79-12.62c0.61,1.65,1.01,1.99,1.8,2.66c4.94-8.66,5.19-9.06,5.46-9.5c-2.35-1.59-2.98-1.46-4.1-1.24
			c0.55-1.84,5.1-7.88,8.8-12.06c3.04,2.22,5.59,4.64,7.65,7.22c-6.67,7.61-14.14,17.08-18.44,33.2
			c-2.76,12.31-2.27,19.2-0.23,29.15c-1.61-2.1-3.67-4.05-6.19-5.81C985.28,418.71,984.89,413.84,986.05,403.79"/>
		<path class="st0" d="M978.08,389.97c1.05-4.79,3.03-6.91,4.36-6.48c-1.7,6.3-2.56,9.46-3.3,16.52
			C977.42,399.52,976.96,395.11,978.08,389.97 M971.83,397.66c-0.9,12.4,2.54,20.44,4.19,24.3c3.93,1.39,7.32,3.05,10.17,4.93
			c-2.5-13.11-5.7-33.96,15.36-65.03c-2.08-1.33-4.35-2.58-6.81-3.73c-3.12,4.82-5.38,8.31-8.52,15.3c-0.01,0-0.01-0.01-0.02-0.01
			c1.37-4.62,2.13-7.16,7.32-20.72C977.28,358.65,979.22,379.71,971.83,397.66"/>
	</g>
	<g>
		<path class="st0" d="M912.02,383.94c0.45-8.63,3.36-14.76,7.42-15.62c-2.31,11.74-2.97,18.26-2.06,31.5
			C914.34,399.95,911.49,394.05,912.02,383.94 M905.01,388.12c0.19,8.19,2.06,23.7,12.48,35.55c5.24-0.08,10.28,0.16,15.04,0.73
			c-8.6-20.14-7.58-46.9,2.33-68.54C922.61,348.53,904.36,360.06,905.01,388.12"/>
		<path class="st0" d="M888.01,401.78c2.68,0.64,3.65,0.84,6.18,0.72c-0.5-2.86-1.12-6.67-1.53-9.54c-1.66,0.11-3.43,0.42-6.31,1.11
			c-0.39-4.66-0.57-6.79-0.94-14.07c2.35,0.72,3.55,0.55,5.94,0.21c-0.22-6.9-0.23-7.17-0.13-11.06c-5.5,0.94-6.46,1.64-8.21,2.93
			c0.22-5.06,0.67-9.82,1.37-14.55c6.87-1.02,13.65-1.75,20.27-2.17c-3.9,14.71-2.33,50.53,6.85,68.53
			c-5.31,0.3-10.78,0.9-16.33,1.76C891.94,417.07,890.37,412.17,888.01,401.78"/>
		<path class="st0" d="M873.18,429.65c-9.5-32.82-11.55-54.96-11.6-67.75c2.72-0.64,5.43-1.23,8.14-1.78
			c8.93,36.26,16.99,53.61,23.7,65.81c-3.66,0.61-7.35,1.33-11.05,2.16c-1.17-2.43-5.38-11.24-10.28-22.73
			c2.68,12.44,5.54,20.54,6.61,23.58c-1.78,0.43-3.56,0.89-5.34,1.37C873.32,430.12,873.24,429.86,873.18,429.65"/>
		<path class="st0" d="M826.33,405.51c-7.23-13.62-12.91-22.12-15.97-26.68c33.25-27.79,51.9,45.63,49.75,55.55
			c-4.57,1.56-9.07,3.26-13.47,5.11c-4-8.48-6.35-13.16-11.54-22.6c13.88,3.63,0.48-34.91-11.07-31.09
			c1.9,3.45,2.92,5.4,10.32,17.72c-2.51,0.99-5,2.02-7.45,3.09C826.72,406.27,826.5,405.84,826.33,405.51"/>
		<path class="st0" d="M816.53,425.86c2.65-0.27,3.69-0.41,6.04-1.4c-1.49-2.58-3.5-6.01-5.04-8.56c-1.3,0.58-2.74,1.34-5.53,3.22
			c-3.47-6.13-6.53-10.37-7.84-12.18c2.65-0.2,3.73-0.79,5.88-1.94c-4.2-5.72-4.36-5.94-6.85-9.09c-4.8,2.76-5.28,3.67-6.14,5.33
			c-4.32-5.83-7.17-9.14-9.25-11.55c6.03-3.29,12.32-6.4,18.82-9.3c5.74,7.43,12.65,16.7,22,32.6c7,12.2,10.14,18.5,14.54,28
			c-5.25,2.32-10.32,4.83-15.14,7.5C824.4,439.93,822.23,435.46,816.53,425.86"/>
		<path class="st0" d="M796.24,427.3c-4.54-5.65-3.08-7.8-2.25-8.46c3.89,4.38,6.96,7.85,11.39,13.99
			C803.52,434.4,800.45,432.54,796.24,427.3 M796.91,439.5c12.37,16.38,12.37,16.38,15.11,19.25c4.47-3.33,9.36-6.5,14.57-9.47
			c-6.42-13.12-16.19-32.62-43.7-56.85c-3.7,2.13-7.28,4.34-10.72,6.61c4.66,3.56,8.02,6.13,13.89,11.62
			c-0.01,0.01-0.02,0.02-0.04,0.02c-4.79-3.07-12.02-7.72-22.83-10.76c0.83,6.36,0.96,7.34,1.15,10.05
			c6.71,2.9,14.03,4.78,20.27,8.45C785.09,423.15,788.79,428.75,796.91,439.5"/>
		<path class="st0" d="M774.84,436.63c-11.8-9.87-11.38-10.67-11.01-11.36C774.33,421.59,804.73,463.16,774.84,436.63
			 M775.37,445.47c9.35,8.22,11.93,11.59,22.8,25.79c2.41-2.74,5.26-5.51,8.56-8.3C787.66,399.19,704.14,402.18,775.37,445.47"/>
		<path class="st0" d="M787.28,483.9c-6.59-12.89-21.84-29.98-57.08-38.22c0.38-1.39,0.85-2.8,1.42-4.22
			c9.7,2.48,15.35,4.19,25.17,9.11c-9.62-6.44-14.58-9.19-25.26-13.98c12.39,1.29,18.08,2.54,28.98,6.4
			c-7.67-4.28-13.12-7.13-24.11-10.65c0.96-1.48,2.02-2.98,3.17-4.49c27.15,9.51,46.13,25,56.4,46.03
			c-1.42,1.81-2.64,3.59-3.67,5.35c-2.58-4.79-5.2-8.62-10.94-14.03c1.97,2.86,6.06,8.81,9.16,17.47c-0.72,1.59-1.27,3.15-1.65,4.67
			C788.39,486.3,787.8,484.91,787.28,483.9"/>
		<path class="st0" d="M773.95,476.31c0.71-0.59,0.74-0.62,0.86-1.47c-2.18-1.97-5.2-4.51-7.6-6.29c-0.03,0.59-0.02,1.32,0.5,3.04
			c-5.87-4.16-10.66-6.33-12.97-7.37c0.85-0.7,0.84-0.83,0.77-2.07c-6.82-3.11-6.82-3.11-11.55-4.58c0.45,2.63,1.01,3.14,2.36,4.36
			c-7.93-2.67-13.8-3.63-16.96-4.14c-0.49-3.08-0.4-6.32,0.26-9.69c11.5,2.37,25,5.79,39.79,16.54
			c10.75,8.49,14.78,14.34,19.27,23.48c-0.6,2.73-0.65,5.34-0.18,7.8C784.51,487.7,781.71,483.5,773.95,476.31"/>
		<path class="st0" d="M729.5,463.39c27.49,1.81,51.09,14.88,60.04,35.93c-0.37-0.87-0.66-1.77-0.88-2.68
			c-0.71-1.45-1.6-3.41-2.4-4.83c-11.8-18.43-30.77-29.03-56.36-31.5C729.52,460.82,728.96,461.58,729.5,463.39"/>
	</g>
</g>
</svg>
